<?xml version="1.0" standalone="no"?>
<!DOCTYPE svg PUBLIC "-//W3C//DTD SVG 20010904//EN"
 "http://www.w3.org/TR/2001/REC-SVG-20010904/DTD/svg10.dtd">
<svg version="1.0" xmlns="http://www.w3.org/2000/svg"
 width="1600.000000pt" height="1600.000000pt" viewBox="0 0 1600.000000 1600.000000"
 preserveAspectRatio="xMidYMid meet">
<metadata>
Created by potrace 1.14, written by Peter Selinger 2001-2017
</metadata>
<g transform="translate(0.000000,1600.000000) scale(0.100000,-0.100000)"
fill="#000000" stroke="none">
<path d="M7678 15995 c-2 -1 -66 -6 -143 -10 -77 -3 -153 -8 -170 -10 -16 -2
-59 -6 -95 -9 -36 -3 -92 -9 -125 -12 -33 -3 -71 -7 -85 -9 -14 -2 -52 -7 -85
-11 -33 -3 -69 -8 -80 -10 -11 -3 -38 -7 -60 -10 -44 -5 -49 -6 -185 -29 -108
-18 -109 -18 -210 -39 -969 -193 -1909 -573 -2740 -1105 -158 -101 -531 -362
-568 -399 -10 -9 -54 -44 -97 -77 -317 -241 -753 -657 -1056 -1006 -500 -574
-936 -1242 -1229 -1884 -42 -91 -73 -159 -99 -217 -140 -311 -347 -932 -422
-1263 -11 -49 -22 -97 -24 -105 -25 -107 -55 -242 -59 -271 -3 -20 -8 -42 -10
-50 -3 -8 -8 -32 -11 -54 -3 -22 -10 -65 -15 -95 -18 -107 -36 -222 -44 -290
-3 -25 -10 -83 -16 -130 -5 -47 -12 -121 -16 -165 -3 -44 -7 -91 -9 -104 -26
-158 -26 -1084 0 -1256 2 -16 7 -61 9 -100 7 -102 30 -312 41 -365 3 -14 7
-45 10 -70 3 -25 12 -83 20 -130 7 -47 16 -101 19 -120 7 -42 14 -76 20 -98 3
-9 7 -35 11 -57 3 -22 10 -56 15 -75 5 -19 11 -46 14 -60 5 -26 26 -117 52
-230 38 -158 167 -592 204 -685 4 -11 18 -49 31 -85 31 -92 150 -388 197 -495
276 -625 613 -1189 1025 -1718 481 -616 1050 -1160 1689 -1614 210 -149 480
-321 678 -431 25 -13 50 -28 55 -32 29 -22 495 -260 508 -260 3 0 47 -20 99
-44 51 -24 134 -60 183 -81 50 -20 99 -41 110 -46 11 -5 45 -18 75 -29 30 -11
64 -25 75 -29 125 -55 710 -240 875 -277 49 -11 39 -8 205 -48 83 -19 161 -37
175 -39 14 -3 63 -12 110 -21 47 -8 101 -18 120 -21 19 -3 60 -10 90 -15 30
-5 73 -12 95 -15 22 -3 54 -7 70 -10 53 -8 98 -14 160 -20 33 -3 76 -8 95 -10
19 -3 62 -7 95 -10 33 -3 83 -7 110 -10 287 -26 997 -26 1270 0 22 2 69 7 105
10 101 9 173 16 200 20 14 2 52 7 85 11 33 3 69 8 80 10 11 3 38 7 60 10 44 5
49 6 185 29 108 18 109 18 210 39 605 121 1195 312 1780 578 99 45 468 232
510 258 8 5 83 48 165 96 204 118 416 255 622 401 95 68 181 130 190 138 10 8
79 63 154 122 75 59 160 129 190 155 30 26 65 56 78 67 110 93 357 328 474
450 40 41 88 91 107 110 19 20 71 77 114 126 44 50 82 92 86 95 14 12 181 214
235 285 33 43 67 86 75 94 14 16 130 172 161 217 8 12 44 64 80 115 130 183
321 492 456 739 42 76 223 436 223 443 0 4 20 49 45 102 114 245 293 729 376
1020 35 125 106 397 113 435 3 14 16 75 30 135 13 61 27 126 30 146 3 20 8 42
10 50 3 8 8 32 11 54 3 22 10 65 15 95 18 107 36 222 44 290 3 25 10 83 16
130 5 47 12 121 16 165 3 44 7 91 10 105 25 156 25 1086 -1 1255 -2 17 -7 62
-9 100 -7 102 -30 312 -41 365 -3 14 -7 45 -10 70 -3 25 -12 83 -20 130 -7 47
-16 101 -19 120 -7 42 -14 76 -20 98 -3 9 -7 35 -11 57 -3 22 -12 64 -20 95
-8 30 -16 66 -19 80 -4 20 -42 190 -61 270 -22 93 -157 534 -185 605 -4 11
-18 49 -31 85 -12 36 -53 143 -91 238 -254 641 -567 1204 -1005 1811 -80 111
-378 480 -404 501 -3 3 -25 28 -49 55 -50 59 -330 354 -380 401 -19 18 -72 69
-118 112 -45 44 -110 104 -144 134 -33 29 -66 58 -72 63 -95 87 -400 333 -517
418 -289 210 -567 390 -809 525 -25 13 -49 28 -55 32 -84 62 -645 329 -905
431 -69 27 -134 53 -145 58 -119 54 -709 240 -875 277 -19 4 -39 9 -45 10 -5
1 -66 16 -135 32 -165 40 -492 101 -620 117 -25 3 -52 7 -60 10 -8 2 -40 6
-70 10 -30 3 -71 7 -90 9 -41 5 -152 17 -195 21 -16 2 -68 6 -115 10 -47 3
-112 8 -145 11 -66 5 -802 14 -807 9z m-963 -2246 c2 -3 6 -739 7 -1635 l3
-1629 26 -56 c69 -148 226 -218 383 -172 110 32 204 138 219 248 4 22 6 744 7
1604 l0 1563 28 -7 c15 -4 36 -9 47 -11 73 -14 285 -73 340 -95 191 -77 244
-104 254 -132 5 -12 12 -47 15 -77 4 -30 9 -71 11 -90 2 -19 7 -57 11 -85 3
-27 7 -63 9 -80 3 -16 7 -50 10 -75 3 -25 7 -61 10 -80 2 -19 7 -60 10 -90 3
-30 7 -68 9 -85 2 -16 7 -55 10 -85 4 -30 9 -71 11 -90 3 -19 7 -61 11 -93 3
-32 7 -67 9 -77 2 -10 7 -50 10 -87 4 -37 8 -79 10 -93 2 -14 7 -61 11 -105 3
-44 8 -89 10 -100 2 -10 6 -51 10 -90 3 -38 7 -80 9 -92 4 -26 16 -154 29
-318 4 -44 9 -93 11 -110 2 -16 7 -73 10 -125 4 -52 8 -111 10 -130 2 -19 7
-87 10 -150 4 -63 8 -131 10 -150 19 -180 27 -764 13 -910 -35 -368 -138 -673
-304 -900 -124 -170 -304 -323 -589 -501 -184 -114 -255 -165 -321 -229 -107
-104 -145 -192 -147 -335 -1 -88 11 -295 18 -325 2 -8 6 -42 10 -75 6 -54 11
-94 30 -245 3 -25 15 -99 25 -165 10 -66 21 -138 25 -160 7 -51 25 -162 30
-196 5 -25 7 -42 20 -144 4 -27 10 -66 15 -85 4 -19 12 -62 16 -95 4 -33 8
-62 9 -65 0 -3 5 -31 9 -64 4 -32 9 -68 11 -80 7 -43 25 -162 30 -198 3 -21 7
-53 10 -70 12 -78 32 -225 40 -303 3 -33 8 -75 11 -93 2 -18 7 -54 10 -80 3
-26 7 -58 9 -72 2 -14 7 -56 11 -95 3 -38 8 -78 10 -88 2 -10 6 -60 10 -110 3
-51 8 -94 9 -97 2 -3 7 -57 10 -120 4 -63 9 -123 11 -132 24 -130 24 -1046 -1
-1208 -2 -14 -6 -50 -10 -80 -13 -112 -17 -138 -46 -276 -56 -270 -143 -496
-257 -668 -54 -81 -186 -217 -234 -242 -18 -9 -35 -20 -38 -24 -12 -19 -142
-70 -225 -88 -40 -9 -198 -9 -260 0 -199 29 -392 165 -520 368 -50 80 -135
262 -140 300 0 3 -3 10 -6 15 -3 6 -11 30 -18 55 -8 25 -17 56 -22 70 -7 22
-32 133 -44 200 -26 136 -28 149 -40 272 -3 32 -8 66 -10 76 -25 133 -26 1072
0 1266 2 17 6 74 10 127 3 53 8 107 10 120 2 13 6 62 10 109 3 47 7 96 9 110
3 14 7 52 11 85 11 107 26 230 30 245 2 8 6 51 10 95 3 44 8 87 10 95 2 8 6
38 10 65 3 28 8 61 10 75 13 81 46 305 50 342 3 23 8 54 10 68 2 14 6 39 9 55
2 17 11 73 20 125 8 52 18 113 21 135 8 55 53 337 65 405 5 30 12 75 15 100 3
25 8 59 11 75 6 32 9 60 19 140 3 28 10 79 15 115 29 205 43 469 27 530 -40
159 -130 263 -342 400 -16 11 -37 24 -45 30 -8 5 -77 50 -152 99 -179 117
-240 165 -362 286 -113 113 -118 118 -190 230 -78 120 -173 332 -192 428 -2
11 -10 43 -18 71 -8 28 -18 71 -21 96 -4 24 -8 47 -10 50 -3 6 -14 90 -25 205
-7 74 -4 832 4 935 2 25 7 113 10 195 4 83 9 175 11 205 2 30 7 102 10 160 4
58 9 123 11 145 1 22 6 78 9 125 4 47 8 105 10 130 3 25 7 77 10 115 3 39 8
89 10 113 6 49 15 136 30 297 9 91 17 162 21 185 2 14 6 50 9 80 10 102 30
266 40 330 2 14 7 50 10 80 3 30 8 66 10 80 5 36 24 161 29 190 3 14 5 37 5
52 1 15 11 36 23 47 52 49 249 134 418 180 93 26 262 62 267 58 1 -2 3 -716 3
-1588 1 -1562 1 -1585 21 -1643 36 -104 119 -180 227 -206 164 -39 340 68 380
232 9 35 12 465 12 1662 l0 1614 315 -2 c173 -1 317 -4 320 -7z m3070 -88 c68
-38 197 -121 295 -188 273 -188 597 -523 795 -823 161 -243 373 -682 425 -880
7 -25 16 -52 20 -61 19 -37 106 -387 125 -504 3 -16 10 -52 15 -80 13 -70 19
-112 26 -175 3 -30 7 -68 9 -85 13 -87 19 -232 20 -425 0 -192 -4 -260 -19
-380 -3 -19 -7 -60 -11 -90 -24 -231 -146 -691 -279 -1050 -76 -207 -211 -548
-251 -635 -33 -72 -195 -486 -195 -498 0 -7 -4 -17 -9 -22 -10 -12 -102 -300
-130 -410 -37 -148 -55 -286 -56 -425 0 -193 12 -293 65 -541 106 -492 148
-704 165 -829 3 -25 8 -56 10 -70 7 -37 13 -78 21 -140 4 -30 8 -66 10 -80 2
-14 6 -54 9 -90 3 -36 8 -81 10 -100 31 -250 26 -958 -10 -1375 -51 -588 -178
-1082 -333 -1295 -81 -111 -163 -162 -267 -165 -184 -7 -326 100 -426 321 -48
105 -101 285 -125 424 -4 25 -8 47 -9 50 -1 3 -5 34 -10 70 -5 36 -9 67 -10
70 -2 8 -15 122 -20 180 -3 30 -7 71 -10 90 -2 19 -7 87 -11 150 -4 63 -9 142
-12 175 -2 33 -7 2293 -9 5023 l-4 4963 53 -27 c29 -15 89 -48 133 -73z"/>
</g>
</svg>
